<?xml version="1.0"?>
<svg
  xmlns="http://www.w3.org/2000/svg"
  xmlns:xlink="http://www.w3.org/1999/xlink" version="1.1"
  preserveAspectRatio="xMinYMin meet"
  viewBox="2091.310189321126 -7694.957268377169 5459.7228150012725 6401.460921904078"
  width="100%" height="100%"
>
  <defs></defs>
  <g stroke="#000000" stroke-width="0.1%" fill="none" transform="matrix(1,0,0,-1,0,0)">
    <g id="*Model_Space"><g id="1089" stroke="rgb(0,0,0)" fill="none"><line x1="7551.0330043223075" y1="2464.9572683771603" x2="7551.0330043223075" y2="7694.957268377162" /></g>
<g id="1145" stroke="rgb(0,0,0)" fill="none"><line x1="7551.0330043223985" y1="7694.957268377162" x2="7551.033004322366" y2="2464.9572683771603" /></g>
<g id="1204" stroke="rgb(0,0,0)" fill="none"><line x1="2321.310189321128" y1="2694.9572683771476" x2="2321.310189321128" y2="4079.9572683771767" /></g>
<g id="1205" stroke="rgb(0,0,0)" fill="none"><line x1="2321.310189321128" y1="6079.957268377177" x2="2321.310189321128" y2="7464.957268377162" /></g>
<g id="1209" stroke="rgb(0,0,0)" fill="none"><line x1="2091.310189321126" y1="2464.9572683771603" x2="2091.310189321128" y2="4079.9572683771476" /></g>
<g id="1210" stroke="rgb(0,0,0)" fill="none"><line x1="2091.310189321128" y1="6079.957268377162" x2="2091.3101893211315" y2="7694.957268377162" /></g>
<g id="1232" stroke="rgb(0,0,0)" fill="none"><line x1="7321.033004322337" y1="2694.9572683771767" x2="7321.033004322337" y2="7464.957268377148" /></g>
<g id="1245" stroke="rgb(0,0,0)" fill="none"><line x1="7551.0330043223075" y1="7694.957268377162" x2="7021.171596821732" y2="7694.957268377162" /></g>
<g id="1246" stroke="rgb(0,0,0)" fill="none"><line x1="4621.171596821732" y1="7694.957268377162" x2="2091.3101893211315" y2="7694.957268377169" /></g>
<g id="1249" stroke="rgb(0,0,0)" fill="none"><line x1="7321.0330043223075" y1="7464.957268377162" x2="7021.171596821732" y2="7464.957268377162" /></g>
<g id="1250" stroke="rgb(0,0,0)" fill="none"><line x1="4621.171596821732" y1="7464.957268377162" x2="2321.310189321128" y2="7464.957268377148" /></g>
<g id="1253" stroke="rgb(0,0,0)" fill="none"><line x1="7551.0330043223075" y1="2464.957268377162" x2="6521.0330043223075" y2="2464.957268377193" /></g>
<g id="1255" stroke="rgb(0,0,0)" fill="none"><line x1="5521.0330043223075" y1="2464.957268377164" x2="2091.310189321128" y2="2464.957268377162" /></g>
<g id="1256" stroke="rgb(0,0,0)" fill="none"><line x1="7321.0330043223075" y1="2694.957268377162" x2="6521.0330043223075" y2="2694.9572683771785" /></g>
<g id="1257" stroke="rgb(0,0,0)" fill="none"><line x1="5521.033004322278" y1="2694.9572683771785" x2="2321.310189321128" y2="2694.957268377162" /></g>
<g id="1300" stroke="rgb(0,0,0)" fill="none"><line x1="4621.171596821732" y1="7464.957268377162" x2="4621.171596821732" y2="7694.957268377162" /></g>
<g id="1301" stroke="rgb(0,0,0)" fill="none"><line x1="7021.171596821732" y1="7464.957268377162" x2="7021.171596821732" y2="7694.957268377162" /></g>
<g id="1363" stroke="rgb(0,0,0)" fill="none"><line x1="2321.310189321128" y1="4079.957268377162" x2="2091.310189321128" y2="4079.957268377162" /></g>
<g id="1364" stroke="rgb(0,0,0)" fill="none"><line x1="2321.310189321128" y1="6079.957268377162" x2="2091.310189321128" y2="6079.957268377162" /></g>
<g id="1439" stroke="rgb(0,0,0)" fill="none"><line x1="5521.0330043223075" y1="2694.957268377164" x2="5521.0330043223075" y2="2464.957268377164" /></g>
<g id="1440" stroke="rgb(0,0,0)" fill="none"><line x1="6521.0330043223075" y1="2694.957268377164" x2="6521.0330043223075" y2="2464.957268377164" /></g>
<g id="1474" stroke="rgb(0,0,0)" fill="rgb(0,0,0)"><text x="4896.250486215568" y="1675.9963464730918" font-size="255" text-anchor="middle" transform="translate(4896.250486215568,1675.9963464730918) scale(1,-1) translate(-4896.250486215568,-1675.9963464730918)">Level 1</text></g>
<g id="1494" stroke="rgb(0,0,0)" fill="none"><line x1="4621.171596821732" y1="7694.957268377162" x2="7021.171596821732" y2="7694.957268377162" /></g>
<g id="1495" stroke="rgb(0,0,0)" fill="none"><line x1="4621.171596821732" y1="7464.957268377162" x2="7021.171596821732" y2="7464.957268377162" /></g>
<g id="1496" stroke="rgb(0,0,0)" fill="none"><line x1="2091.310189321128" y1="6079.957268377162" x2="2091.310189321128" y2="4079.9572683771476" /></g>
<g id="1497" stroke="rgb(0,0,0)" fill="none"><line x1="2321.310189321128" y1="6079.957268377177" x2="2321.310189321128" y2="4079.9572683771767" /></g>
<g id="1498" stroke="rgb(0,0,0)" fill="none"><line x1="5521.033004322278" y1="2694.9572683771785" x2="6521.0330043223075" y2="2694.9572683771785" /></g>
<g id="1499" stroke="rgb(0,0,0)" fill="none"><line x1="5521.0330043223075" y1="2464.957268377164" x2="6521.0330043223075" y2="2464.957268377164" /></g>
<g id="1508" stroke="rgb(0,0,0)" fill="rgb(0,0,0)"><text x="5335.876285375145" y="5205.616050105275" font-size="151.47000000000003" text-anchor="middle" transform="translate(5335.876285375145,5205.616050105275) scale(1,-1) translate(-5335.876285375145,-5205.616050105275)">FFL: 64.25</text></g>
<g id="1510" stroke="rgb(0,0,0)" fill="rgb(0,0,0)"><text x="4979.698710555221" y="5592.352421804346" font-size="151.47000000000003" text-anchor="middle" transform="translate(4979.698710555221,5592.352421804346) scale(1,-1) translate(-4979.698710555221,-5592.352421804346)">USFL: 67.15</text></g></g>
  </g>
</svg>